<?xml version="1.0" encoding="utf-8"?>
<!-- Generator: Adobe Illustrator 16.0.0, SVG Export Plug-In . SVG Version: 6.00 Build 0)  -->
<!DOCTYPE svg PUBLIC "-//W3C//DTD SVG 1.1//EN" "http://www.w3.org/Graphics/SVG/1.1/DTD/svg11.dtd">
<svg version="1.1" id="Layer_1" xmlns="http://www.w3.org/2000/svg" xmlns:xlink="http://www.w3.org/1999/xlink" x="0px" y="0px"
	 width="400px" height="400px" viewBox="0 0 400 400" enable-background="new 0 0 400 400" xml:space="preserve">
<path fill="#981B1E" d="M368.749,0H256.25L93.749,237.499h112.5L368.749,0z"/>
<path fill="#981B1E" d="M31.25,0h112.499l162.5,237.499H193.75L31.25,0z"/>
<path fill="#231F20" d="M206.25,125c76.25,0,137.5,61.25,137.5,137.5S282.5,400,206.25,400s-137.5-61.25-137.5-137.5
	S130,125,206.25,125z"/>
<path fill="#FFFFFF" d="M206.25,162.5c-55,0-100,45-100,100c0,55,44.999,100,100,100s100-44.999,100-100S261.249,162.5,206.25,162.5
	z M206.25,337.5c-41.25,0-75-33.751-75-75s33.751-75,75-75s75,33.75,75,75S247.499,337.5,206.25,337.5z"/>
</svg>
