<?xml version="1.0" encoding="utf-8"?>
<!-- Generator: Adobe Illustrator 16.0.0, SVG Export Plug-In . SVG Version: 6.00 Build 0)  -->
<!DOCTYPE svg PUBLIC "-//W3C//DTD SVG 1.1//EN" "http://www.w3.org/Graphics/SVG/1.1/DTD/svg11.dtd">
<svg version="1.1" xmlns="http://www.w3.org/2000/svg" xmlns:xlink="http://www.w3.org/1999/xlink" x="0px" y="0px"
	 width="165.709px" height="147.17px" viewBox="0 0 165.709 147.17" enable-background="new 0 0 165.709 147.17"
	 xml:space="preserve">
<g id="Layer_2" display="none">
	
		<image display="inline" overflow="visible" width="225" height="225" xlink:href="868B0585.jpg"  transform="matrix(1 0 0 1 -3.625 -18.667)">
	</image>
</g>
<g id="Layer_1">
	<polygon fill="none" points="76.125,13.333 73.996,24.333 139.754,24.333 137.625,13.333 	"/>
	<path d="M84.809,91.722v0.007H80.36v-0.01C37.356,91.519,7.169,85.276,0,79.019v6.831v24.458v24.181
		c0,8.453,6.853,12.683,15.307,12.683h135.096c8.454,0,15.307-4.229,15.307-12.683v-24.181V85.849v-6.831
		C158.51,85.302,128.102,91.572,84.809,91.722z"/>
	<polygon fill="none" points="76.125,13.333 73.996,24.333 139.754,24.333 137.625,13.333 	"/>
	<path d="M164.179,24.333h-43.347l-2.229-13v-1.25c0-1.104-0.896-2-2-2h-1h-65.5h-1c-1.104,0-2,0.896-2,2v1.25l-2.229,13H1.531
		C0.686,24.333,0,24.775,0,25.32v47.188v0.563c6.063,5.291,36.007,13.041,82.479,13.041h0.75c46.473,0,76.417-7.75,82.479-13.041
		v-0.563V25.32C165.709,24.775,165.023,24.333,164.179,24.333z M113.047,24.333h-2.186h-3.902H56.632h-3.903h-2.754l2.129-11h61.5
		l2.129,11H113.047z"/>
	<path fill="#981D20" d="M100.229,96.125c0,1.658-1.344,3-3,3h-28.75c-1.656,0-3-1.342-3-3V79.126c0-1.657,1.344-3,3-3h28.75
		c1.656,0,3,1.343,3,3V96.125z"/>
</g>
</svg>
