<?xml version="1.0" encoding="utf-8"?>
<!-- Generator: Adobe Illustrator 16.0.0, SVG Export Plug-In . SVG Version: 6.00 Build 0)  -->
<!DOCTYPE svg PUBLIC "-//W3C//DTD SVG 1.1//EN" "http://www.w3.org/Graphics/SVG/1.1/DTD/svg11.dtd">
<svg version="1.1" id="Capa_1" xmlns="http://www.w3.org/2000/svg" xmlns:xlink="http://www.w3.org/1999/xlink" x="0px" y="0px"
	 width="400px" height="433.667px" viewBox="0 -33.667 400 433.667" enable-background="new 0 -33.667 400 433.667"
	 xml:space="preserve">
<g>
	<path d="M200,195.626c44.473,0,80.529-43.792,80.529-97.813C280.53,43.792,268.692,0,200,0s-80.531,43.792-80.531,97.814
		C119.469,151.834,155.525,195.626,200,195.626z"/>
	<path d="M47.896,344.975C47.882,341.682,47.868,344.047,47.896,344.975L47.896,344.975z"/>
	<path d="M352.097,347.547C352.14,346.646,352.112,341.291,352.097,347.547L352.097,347.547z"/>
	<path d="M351.925,341.025c-1.491-94.105-13.781-120.92-107.83-137.895c0,0-13.239,16.87-44.096,16.87
		c-30.857,0-44.099-16.87-44.099-16.87C62.878,219.92,49.84,246.338,48.125,337.969c-0.14,7.481-0.205,7.875-0.23,7.006
		c0.006,1.628,0.013,4.639,0.013,9.887c0,0,22.391,45.139,152.092,45.139c129.697,0,152.091-45.139,152.091-45.139
		c0-3.372,0.002-5.717,0.006-7.313C352.071,348.086,352.021,347.045,351.925,341.025z"/>
</g>
<path fill="#981B1E" d="M257.964-11.608c-8.363-10.948-26.356-22.575-57.759-22.042c-18.051,0.307-51.95,5.772-69.508,14.911
	l8.538,5.834c-28.35,20.931-31.988,52.854-31.921,68.336c0.024,5.601,0.533,9.051,0.533,9.051
	c11.544,11.543,11.544,40.406,11.544,40.406l11.545-11.545v0l0,0c0,0-0.353-2.638-0.375-6.715
	c-0.056-10.42,2.043-30.242,17.692-39.463c20.204-11.905,37.881-5.772,55.92-5.772c1.258,0,2.479-0.019,3.686-0.044
	c0.55-0.011,1.092-0.025,1.632-0.042c0.38-0.013,0.754-0.027,1.129-0.042c16.965-0.62,29.147-3.714,37.541-8.533
	c17.902,10.45,20.772,42.068,21.226,51.895c0.095,2.009,0.736,3.95,1.824,5.641l9.428,14.62c0,0-3.228-24.172,11.543-40.407
	C292.182,64.481,295.899-5.925,257.964-11.608z"/>
</svg>
