<?xml version="1.0" encoding="utf-8"?>
<!-- Generator: Adobe Illustrator 16.0.0, SVG Export Plug-In . SVG Version: 6.00 Build 0)  -->
<!DOCTYPE svg PUBLIC "-//W3C//DTD SVG 1.1//EN" "http://www.w3.org/Graphics/SVG/1.1/DTD/svg11.dtd">
<svg version="1.1" id="Layer_1" xmlns="http://www.w3.org/2000/svg" xmlns:xlink="http://www.w3.org/1999/xlink" x="0px" y="0px"
	 width="400px" height="400px" viewBox="0 0 400 400" enable-background="new 0 0 400 400" xml:space="preserve">
<rect width="400" height="400"/>
<polygon fill="#ED2024" points="26,62.517 78,76.017 26,90.017 39,76.267 "/>
<polygon fill="#FFFFFF" points="176.083,13.001 192.583,19.501 191.083,8.334 207.75,15.334 220.417,30.834 218.083,37.167 
	198.917,34.834 211.25,51.834 196.75,56.667 191.917,50.167 176.083,47.834 169.083,29.167 "/>
<polygon fill="#FFFFFF" points="68.75,266 84.75,249.25 71.25,236 42.5,240.75 29.75,253.25 26,281.5 47,302 83.25,302 
	77.75,286.25 93.75,291.75 97.25,263 "/>
<polygon fill="#FFFFFF" points="163.75,229.25 184.25,250.25 166.25,272 187.75,292.25 222.75,289.75 241.25,265.75 239.25,231.75 
	216,203.25 199,216.25 179,208.5 "/>
<polygon fill="#FFFFFF" points="169.25,287.25 175.25,292.25 168.25,302 182.25,302 182.25,314 173,311.75 176.5,321 158,321 
	148,312.25 148,297.25 154,290.75 "/>
<polygon fill="#FFFFFF" points="195.5,344.25 195.5,372 217.25,348.5 237.75,375.5 220,383 235.5,392.5 205.5,421.25 171.5,420 
	151.75,392.5 153.25,371 173.25,344.25 "/>
<polygon fill="#FFFFFF" points="399.833,25.684 413.167,29.684 416,39.017 404.667,42.184 417.667,48.184 408.75,59.85 
	403.333,53.184 402.333,62.517 385.833,53.017 382.333,39.517 390.5,27.184 "/>
<polygon fill="#3953A4" points="291,281.25 327.167,238.25 324.167,257.75 343.167,260.418 "/>
<g>
	<g>
		<rect x="102.95" y="53.926" fill="#FFFFFF" width="11.6" height="11.6"/>
		<polyline fill="#FFFFFF" points="108.75,48.126 120.35,48.126 120.35,59.726 		"/>
		<polyline fill="#FFFFFF" points="102.95,53.926 109.156,47.809 120.219,58.719 114.55,65.526 		"/>
		<line fill="#FFFFFF" x1="114.55" y1="53.926" x2="120.35" y2="48.126"/>
	</g>
	<g>
		<rect x="102.95" y="53.609" fill="none" stroke="#0B8140" stroke-miterlimit="10" width="11.6" height="11.601"/>
		<polyline fill="none" stroke="#0B8140" stroke-miterlimit="10" points="108.75,47.809 120.35,47.809 120.35,59.409 		"/>
		<line fill="none" stroke="#0B8140" stroke-miterlimit="10" x1="108.75" y1="47.809" x2="102.95" y2="53.609"/>
		<line fill="none" stroke="#0B8140" stroke-miterlimit="10" x1="120.35" y1="47.809" x2="114.55" y2="53.609"/>
		<line fill="none" stroke="#0B8140" stroke-miterlimit="10" x1="120.35" y1="59.409" x2="114.55" y2="65.209"/>
	</g>
</g>
<g>
	<g>
		<rect x="268.95" y="41.358" fill="#FFFFFF" width="11.601" height="11.6"/>
		<polyline fill="#FFFFFF" points="274.75,35.559 286.35,35.559 286.35,47.159 		"/>
		<polyline fill="#FFFFFF" points="268.95,41.358 275.156,35.242 286.219,46.151 280.551,52.958 		"/>
		<line fill="#FFFFFF" x1="280.551" y1="41.358" x2="286.35" y2="35.559"/>
	</g>
	<g>
		<rect x="268.95" y="41.042" fill="none" stroke="#0B8140" stroke-miterlimit="10" width="11.601" height="11.601"/>
		<polyline fill="none" stroke="#0B8140" stroke-miterlimit="10" points="274.75,35.242 286.35,35.242 286.35,46.842 		"/>
		<line fill="none" stroke="#0B8140" stroke-miterlimit="10" x1="274.75" y1="35.242" x2="268.95" y2="41.042"/>
		<line fill="none" stroke="#0B8140" stroke-miterlimit="10" x1="286.35" y1="35.242" x2="280.551" y2="41.042"/>
		<line fill="none" stroke="#0B8140" stroke-miterlimit="10" x1="286.35" y1="46.842" x2="280.551" y2="52.642"/>
	</g>
</g>
<g>
	<g>
		<rect x="341.851" y="111.817" fill="#FFFFFF" width="11.601" height="11.6"/>
		<polyline fill="#FFFFFF" points="347.65,106.017 359.25,106.017 359.25,117.617 		"/>
		<polyline fill="#FFFFFF" points="341.851,111.817 348.057,105.7 359.119,116.61 353.451,123.417 		"/>
		<line fill="#FFFFFF" x1="353.451" y1="111.817" x2="359.25" y2="106.017"/>
	</g>
	<g>
		<rect x="341.851" y="111.5" fill="none" stroke="#0B8140" stroke-miterlimit="10" width="11.601" height="11.601"/>
		<polyline fill="none" stroke="#0B8140" stroke-miterlimit="10" points="347.65,105.7 359.25,105.7 359.25,117.3 		"/>
		<line fill="none" stroke="#0B8140" stroke-miterlimit="10" x1="347.65" y1="105.7" x2="341.851" y2="111.5"/>
		<line fill="none" stroke="#0B8140" stroke-miterlimit="10" x1="359.25" y1="105.7" x2="353.451" y2="111.5"/>
		<line fill="none" stroke="#0B8140" stroke-miterlimit="10" x1="359.25" y1="117.3" x2="353.451" y2="123.101"/>
	</g>
</g>
<g>
	<g>
		<rect x="271.851" y="352.426" fill="#FFFFFF" width="11.601" height="11.6"/>
		<polyline fill="#FFFFFF" points="277.65,346.626 289.25,346.626 289.25,358.227 		"/>
		<polyline fill="#FFFFFF" points="271.851,352.426 278.057,346.309 289.119,357.219 283.451,364.025 		"/>
		<line fill="#FFFFFF" x1="283.451" y1="352.426" x2="289.25" y2="346.626"/>
	</g>
	<g>
		<rect x="271.851" y="352.109" fill="none" stroke="#0B8140" stroke-miterlimit="10" width="11.601" height="11.6"/>
		<polyline fill="none" stroke="#0B8140" stroke-miterlimit="10" points="277.65,346.309 289.25,346.309 289.25,357.909 		"/>
		<line fill="none" stroke="#0B8140" stroke-miterlimit="10" x1="277.65" y1="346.309" x2="271.851" y2="352.109"/>
		<line fill="none" stroke="#0B8140" stroke-miterlimit="10" x1="289.25" y1="346.309" x2="283.451" y2="352.109"/>
		<line fill="none" stroke="#0B8140" stroke-miterlimit="10" x1="289.25" y1="357.909" x2="283.451" y2="363.709"/>
	</g>
</g>
<g>
	<g>
		<rect x="237.75" y="313.017" fill="#FFFFFF" width="11.601" height="11.601"/>
		<polyline fill="#FFFFFF" points="243.55,307.217 255.149,307.217 255.149,318.816 		"/>
		<polyline fill="#FFFFFF" points="237.75,313.017 243.956,306.9 255.019,317.81 249.351,324.617 		"/>
		<line fill="#FFFFFF" x1="249.351" y1="313.017" x2="255.149" y2="307.217"/>
	</g>
	<g>
		<rect x="237.75" y="312.699" fill="none" stroke="#0B8140" stroke-miterlimit="10" width="11.601" height="11.602"/>
		<polyline fill="none" stroke="#0B8140" stroke-miterlimit="10" points="243.55,306.9 255.149,306.9 255.149,318.5 		"/>
		<line fill="none" stroke="#0B8140" stroke-miterlimit="10" x1="243.55" y1="306.9" x2="237.75" y2="312.699"/>
		<line fill="none" stroke="#0B8140" stroke-miterlimit="10" x1="255.149" y1="306.9" x2="249.351" y2="312.699"/>
		<line fill="none" stroke="#0B8140" stroke-miterlimit="10" x1="255.149" y1="318.5" x2="249.351" y2="324.301"/>
	</g>
</g>
<g>
	<g>
		<rect x="100.051" y="352.426" fill="#FFFFFF" width="11.601" height="11.6"/>
		<polyline fill="#FFFFFF" points="105.851,346.626 117.45,346.626 117.45,358.227 		"/>
		<polyline fill="#FFFFFF" points="100.051,352.426 106.257,346.309 117.319,357.219 111.651,364.025 		"/>
		<line fill="#FFFFFF" x1="111.651" y1="352.426" x2="117.45" y2="346.626"/>
	</g>
	<g>
		<rect x="100.051" y="352.109" fill="none" stroke="#0B8140" stroke-miterlimit="10" width="11.601" height="11.6"/>
		<polyline fill="none" stroke="#0B8140" stroke-miterlimit="10" points="105.851,346.309 117.45,346.309 117.45,357.909 		"/>
		<line fill="none" stroke="#0B8140" stroke-miterlimit="10" x1="105.851" y1="346.309" x2="100.051" y2="352.109"/>
		<line fill="none" stroke="#0B8140" stroke-miterlimit="10" x1="117.45" y1="346.309" x2="111.651" y2="352.109"/>
		<line fill="none" stroke="#0B8140" stroke-miterlimit="10" x1="117.45" y1="357.909" x2="111.651" y2="363.709"/>
	</g>
</g>
<g>
	<g>
		<rect x="117.45" y="257.01" fill="#FFFFFF" width="11.601" height="11.6"/>
		<polyline fill="#FFFFFF" points="123.25,251.21 134.85,251.21 134.85,262.811 		"/>
		<polyline fill="#FFFFFF" points="117.45,257.01 123.656,250.893 134.719,261.803 129.051,268.609 		"/>
		<line fill="#FFFFFF" x1="129.051" y1="257.01" x2="134.85" y2="251.21"/>
	</g>
	<g>
		<rect x="117.45" y="256.693" fill="none" stroke="#0B8140" stroke-miterlimit="10" width="11.601" height="11.6"/>
		<polyline fill="none" stroke="#0B8140" stroke-miterlimit="10" points="123.25,250.893 134.85,250.893 134.85,262.493 		"/>
		<line fill="none" stroke="#0B8140" stroke-miterlimit="10" x1="123.25" y1="250.893" x2="117.45" y2="256.693"/>
		<line fill="none" stroke="#0B8140" stroke-miterlimit="10" x1="134.85" y1="250.893" x2="129.051" y2="256.693"/>
		<line fill="none" stroke="#0B8140" stroke-miterlimit="10" x1="134.85" y1="262.493" x2="129.051" y2="268.293"/>
	</g>
</g>
</svg>
