<?xml version="1.0" encoding="utf-8"?>
<!-- Generator: Adobe Illustrator 16.0.0, SVG Export Plug-In . SVG Version: 6.00 Build 0)  -->
<!DOCTYPE svg PUBLIC "-//W3C//DTD SVG 1.1//EN" "http://www.w3.org/Graphics/SVG/1.1/DTD/svg11.dtd">
<svg version="1.1" id="Layer_1" xmlns="http://www.w3.org/2000/svg" xmlns:xlink="http://www.w3.org/1999/xlink" x="0px" y="0px"
	 width="400px" height="400px" viewBox="0 0 400 400" enable-background="new 0 0 400 400" xml:space="preserve">
<rect fill="#D3D3D3" width="400" height="400"/>
<rect x="213.542" y="60.954" fill="#010101" width="146.458" height="21.955"/>
<rect x="40" y="317.089" fill="#010101" width="146.458" height="21.956"/>
<polygon fill="#010101" points="332.538,104.864 290.582,205.488 286.771,214.636 282.988,205.488 241.369,104.864 213.542,104.864 
	213.542,205.488 213.542,216.467 213.542,339.045 235.51,339.045 235.51,216.467 235.51,205.488 235.51,143.65 261.723,205.488 
	266.377,216.467 280.18,249.033 293.363,249.033 307.166,216.467 311.818,205.488 338.031,143.65 338.031,205.488 338.031,216.467 
	338.031,339.045 360,339.045 360,104.864 "/>
<path fill="#010101" d="M186.457,139.625v-20.125c0-32.564-25.998-58.545-58.583-58.545H98.583C66.361,60.954,40,86.935,40,119.499
	v44.093v72.631c0,32.199,26.362,58.912,58.583,58.912h29.292c32.586,0,58.583-26.713,58.583-58.912V216.1h-21.969v20.123
	c0,20.125-16.477,36.592-36.614,36.592H98.583c-20.138,0-36.615-16.467-36.615-36.592v-72.631v-44.093
	c0-20.49,16.11-36.589,36.615-36.589h29.292c20.504,0,36.614,16.099,36.614,36.589v20.125H186.457z"/>
<rect x="40" y="166.865" fill="#9A1C21" width="320" height="21.954"/>
<rect x="213.542" y="156.899" fill="#010101" width="21.968" height="69.625"/>
<rect x="338.031" y="149.784" fill="#010101" width="21.969" height="56.918"/>
</svg>
