<svg version="1.1" id="Layer_1" xmlns="http://www.w3.org/2000/svg" xmlns:xlink="http://www.w3.org/1999/xlink" x="0px" y="0px" viewBox="0 0 2850.1 676.9" style="enable-background:new 0 0 2850.1 676.9;" xml:space="preserve">
						<style type="text/css">
							.st0{fill:#231F20;}
						</style>
						<g>
							<path class="st0" d="M416.8,379.7h-37v47.1h37c22,0,33-5.5,33-23.3C449.8,388,438.8,379.7,416.8,379.7z"></path>
							<path class="st0" d="M229.4,379.7h-30.6V429h30.6c23.3,0,32.1-8.3,32.1-24.5C261.6,388.3,252.7,379.7,229.4,379.7z"></path>
							<path class="st0" d="M1879.5,0l-426.4,193.8H0l0,483.1h1469.5l408.3-186.4h972.3V0H1879.5z M231.9,470.6h-33v60.3h-51.7V338.1h84.7
								c50.5,0,79.9,23.6,79.9,66.1C311.7,447,282.4,470.6,231.9,470.6z M450.7,530.8c-4-5.2-6.4-17.1-8-37c-1.5-22-11-26.9-28.4-26.9
								h-34.6v63.9h-51.1V338.1H426c49.9,0,74.7,23.6,74.7,61.2c0,28.1-17.4,46.5-41,49.6c19.9,4,31.5,15.3,33.7,37.6
								c2.7,28.8,3.7,37.3,10.1,44.4H450.7z M615.1,534.5c-56,0-100-40.7-100-100c0-59.3,44-100,100-100c56,0,100,40.7,100,100
								C715.2,493.8,671.1,534.5,615.1,534.5z M881.7,460.8c0,51.7-32.4,73.7-78.3,73.7c-49.5,0-79.2-28.5-79.5-79.9l50.2-1.8
								c1.2,24.5,10.1,37.6,29.1,37.6c18.7,0,26.6-10.7,26.6-34.3V338.1h52V460.8z M1060.2,530.8H908.4V338.1h149v42.8h-97.9v31.5h75.6
								v42.2h-75.6V488h100.7V530.8z M1168.9,488.3c30,0,41.6-19.9,44.7-41.3l49.9,2.1c-3.7,48-35.2,85.4-94.2,85.4
								c-56.3,0-98.8-40.7-98.8-100c0-59.3,42.5-100,98.8-100c59.1,0,90.6,37.6,94.2,85.7l-49.9,1.8c-3.1-21.4-14.7-41.3-44.7-41.3
								c-28.4,0-45,21.1-45,53.8S1140.4,488.3,1168.9,488.3z M1452.3,380.9h-67v149.9h-51.7V380.9h-66.1v-42.8h184.8V380.9z M1813.8,305.1
								l-303.1,138.6v-52.5l303.1-138.6V305.1z M2097.2,343.7h-52V208.1h-1.2l-34.6,135.5H1965l-34.6-135.5h-1.2v135.5h-47.7V150.9h80.5
								l28.5,121.1h0.9l27.2-121.1h78.6V343.7z M2268.3,343.7h-104H2112l76.8-192.7h58.1l76.8,192.7H2268.3z M2460.9,343.7l-53.5-76.8
								l-16.8,18.4v58.4h-52V150.9h52v78l69.2-78h59.7l-74.4,82l78,110.8H2460.9z M2686.4,343.7h-151.8V150.9h149v42.8h-97.9v31.5h75.6
								v42.2h-75.6v33.3h100.7V343.7z"></path>
						</g>
						</svg>