<?xml version="1.0" encoding="utf-8"?>
<!-- Generator: Adobe Illustrator 16.0.0, SVG Export Plug-In . SVG Version: 6.00 Build 0)  -->
<!DOCTYPE svg PUBLIC "-//W3C//DTD SVG 1.1//EN" "http://www.w3.org/Graphics/SVG/1.1/DTD/svg11.dtd">
<svg version="1.1" id="Layer_1" xmlns="http://www.w3.org/2000/svg" xmlns:xlink="http://www.w3.org/1999/xlink" x="0px" y="0px"
	 width="800px" height="92.615px" viewBox="0 0 800 92.615" enable-background="new 0 0 800 92.615" xml:space="preserve">
<g>
	<path fill="#010101" d="M15.91,92.331H0v-59.66h26.136c15.625,0,24.717,7.386,24.717,20.455c0,13.352-9.092,20.454-24.717,20.454
		H15.91V92.331z M25.568,60.795c7.103,0,9.943-2.556,9.943-7.67s-2.841-7.671-9.943-7.671H15.91v15.341H25.568z"/>
	<path fill="#010101" d="M94.034,92.331c-1.137-1.705-1.989-5.397-2.557-11.364c-0.568-6.818-3.409-8.238-8.807-8.238H71.875v19.887
		h-15.91v-59.66H86.08c15.34,0,23.01,7.385,23.01,19.035c0,8.806-5.397,14.487-12.784,15.34c6.25,1.137,9.66,4.829,10.512,11.648
		c0.852,8.807,1.136,11.647,3.124,13.637H94.034V92.331z M83.523,59.944c6.818,0,10.227-1.704,10.227-7.102
		c0-4.831-3.409-7.388-10.227-7.388H72.16v14.489H83.523z"/>
	<path fill="#010101" d="M144.886,93.466c-17.33,0-30.965-12.5-30.965-30.966c0-18.467,13.635-30.966,30.965-30.966
		s30.966,12.5,30.966,30.966C175.852,80.966,162.216,93.466,144.886,93.466z M144.886,45.739c-8.807,0-14.489,6.534-14.489,16.762
		s5.682,16.761,14.489,16.761c8.808,0,14.489-6.533,14.489-16.761S153.694,45.739,144.886,45.739z"/>
	<path fill="#010101" d="M227.556,32.671v38.068c0,15.909-9.943,22.728-24.146,22.728c-15.341,0-24.433-8.807-24.717-24.717
		l15.625-0.567c0.284,7.67,3.125,11.648,9.091,11.648c5.682,0,8.239-3.41,8.239-10.513V32.671H227.556z"/>
	<path fill="#010101" d="M282.67,92.331h-46.875v-59.66h46.022v13.352h-30.114v9.66H275V68.75h-23.296v10.229h31.25v13.353H282.67z"
		/>
	<path fill="#010101" d="M316.477,31.534c18.182,0,28.125,11.648,29.262,26.42l-15.341,0.569
		c-0.853-6.534-4.546-12.785-13.921-12.785c-8.806,0-13.92,6.534-13.92,16.762s5.114,16.761,13.92,16.761
		c9.375,0,12.784-6.25,13.921-12.784l15.341,0.568c-1.137,14.773-10.795,26.421-29.262,26.421c-17.329,0-30.682-12.5-30.682-30.966
		C285.795,44.034,299.148,31.534,316.477,31.534z"/>
	<path fill="#010101" d="M367.329,92.331V45.739h-20.455V32.386h57.103v13.353h-20.455v46.307h-16.194V92.331z"/>
</g>
<g>
	<path fill="#010101" d="M577.273,59.66l-10.796-42.046h-0.285V59.66H551.42V0h25.001l8.807,37.5h0.283L594.034,0h24.432v59.66
		h-16.193V17.614h-0.284L591.192,59.66H577.273z"/>
	<path fill="#010101" d="M664.772,0l23.863,59.66h-17.045l-4.546-11.648H643.75l-4.546,11.648h-16.193L646.876,0H664.772z
		 M648.296,36.08h13.92l-6.818-17.614h-0.284L648.296,36.08z"/>
	<path fill="#010101" d="M730.966,59.66l-16.478-23.864l-5.113,5.682V59.66h-16.193V0h16.194v24.147L730.682,0h18.465
		l-23.011,25.283l24.147,34.376H730.966z"/>
	<path fill="#010101" d="M799.977,59.66h-45.999V0H800v13.352h-30.397v9.66h23.295V36.08h-23.295v10.227h30.374V59.66z"/>
</g>
<polygon fill="#010101" points="417.897,71.591 536.363,37.5 536.363,24.433 417.897,58.524 "/>
</svg>
