<?xml version="1.0" encoding="utf-8"?>
<!-- Generator: Adobe Illustrator 16.0.0, SVG Export Plug-In . SVG Version: 6.00 Build 0)  -->
<!DOCTYPE svg PUBLIC "-//W3C//DTD SVG 1.1//EN" "http://www.w3.org/Graphics/SVG/1.1/DTD/svg11.dtd">
<svg version="1.1" id="Layer_1" xmlns="http://www.w3.org/2000/svg" xmlns:xlink="http://www.w3.org/1999/xlink" x="0px" y="0px"
	 width="800px" height="400px" viewBox="0 0 800 400" enable-background="new 0 0 800 400" xml:space="preserve">
<rect x="0" fill="#FFE8CF" width="800" height="400"/>
<g>
	<path fill="#231F20" d="M116.993,211.578h-10.387v13.219h10.387c6.175,0,9.26-1.547,9.26-6.539
		C126.254,213.906,123.169,211.578,116.993,211.578z"/>
	<path fill="#231F20" d="M64.391,211.578h-8.59v13.844h8.59c6.539,0,9.012-2.336,9.012-6.883
		C73.43,213.992,70.93,211.578,64.391,211.578z"/>
	<path fill="#231F20" d="M527.563,105l-119.688,54.398H0V295h412.476l114.603-52.32H800V105H527.563z M65.094,237.094h-9.266v16.922
		H41.316v-54.113h23.778c14.172,0,22.425,6.628,22.425,18.55C87.492,230.469,79.266,237.094,65.094,237.094z M126.507,253.992
		c-1.12-1.461-1.795-4.805-2.245-10.383c-0.422-6.18-3.087-7.555-7.974-7.555h-9.71v17.938H92.235v-54.089h27.34
		c14.007,0,20.969,6.628,20.969,17.175c0,7.891-4.884,13.055-11.509,13.922c5.587,1.125,8.84,4.297,9.458,10.555
		c0.757,8.086,1.038,10.477,2.835,12.461h-14.821V253.992z M172.653,255.031c-15.719,0-28.066-11.422-28.066-28.07
		s12.347-28.07,28.066-28.07s28.069,11.422,28.069,28.07C200.75,243.609,188.372,255.031,172.653,255.031z M247.485,234.344
		c0,14.516-9.094,20.688-21.978,20.688c-13.894,0-22.229-8-22.316-22.43l14.094-0.508c0.337,6.875,2.833,10.563,8.168,10.563
		c5.247,0,7.465-3.008,7.465-9.633v-33.121h14.597v34.441H247.485z M297.591,253.992h-42.609v-54.089h41.825v12.011h-27.481v8.844
		h21.219v11.844h-21.219v9.375h28.266V253.992z M328.101,242.063c8.418,0,11.677-5.586,12.549-11.594l14.003,0.594
		c-1.035,13.469-9.878,23.969-26.438,23.969c-15.806,0-27.734-11.422-27.734-28.07s11.929-28.07,27.734-28.07
		c16.585,0,25.429,10.555,26.438,24.055l-14.003,0.508c-0.872-6.008-4.13-11.594-12.549-11.594c-7.972,0-12.632,5.922-12.632,15.102
		S320.101,242.063,328.101,242.063z M407.65,211.914h-18.806v42.078h-14.512v-42.078h-18.554v-12.011h51.872V211.914L407.65,211.914
		z M509.118,190.641l-85.071,38.906v-14.742l85.071-38.902V190.641z M588.672,201.473H574.07V163.41h-0.335l-9.71,38.036h-12.462
		l-9.719-38.036h-0.328v38.036h-13.391v-54.089h22.594l8,33.991h0.25l7.641-33.991h22.063V201.473L588.672,201.473z
		 M636.688,201.473H607.5H592.82l21.556-54.09h16.313l21.556,54.09H636.688z M690.75,201.473l-15.016-21.554l-4.71,5.163v16.391
		h-14.603v-54.117h14.603v21.894l19.42-21.894h16.759l-20.884,23.016l21.899,31.101H690.75z M754.047,201.473h-42.609v-54.117
		h41.828v12.016h-27.484v8.839H747v11.848h-21.219v9.344h28.266V201.473z"/>
</g>
</svg>
