<?xml version="1.0" encoding="utf-8"?>
<!-- Generator: Adobe Illustrator 16.0.0, SVG Export Plug-In . SVG Version: 6.00 Build 0)  -->
<!DOCTYPE svg PUBLIC "-//W3C//DTD SVG 1.1//EN" "http://www.w3.org/Graphics/SVG/1.1/DTD/svg11.dtd">
<svg version="1.1" id="Layer_1" xmlns="http://www.w3.org/2000/svg" xmlns:xlink="http://www.w3.org/1999/xlink" x="0px" y="0px"
	 width="400px" height="400px" viewBox="0 0 400 400" enable-background="new 0 0 400 400" xml:space="preserve">
<rect fill="#D3D3D3" width="400" height="400"/>
<g>
	<path id="path8412" fill="#F1F0F0" stroke="#010101" stroke-width="3" stroke-miterlimit="10" d="M207.717,81.988
		c56.318,0.113,111.148,4.263,128.594,13.353c36.311,18.919,26.482,136.122,0,149.927c-5.11,2.66-17.123,4.867-33.459,6.584
		c0.736,11.693-0.49,28.46-10.844,41.097c-23.672,28.896-70.068,24.876-70.068,24.876s42.605-14.936,53.83-37.211
		c4.299-8.508,3.998-18.106,1.998-26.707c-74.443,4.772-192.836,2.434-214.073-8.639c-30.46-15.88-32.705-132.876,0-149.927
		C80.218,86.721,144.893,81.856,207.717,81.988z"/>
	<path fill="#010101" d="M226.178,158.422c0.043-0.243,0.066-0.493,0.066-0.748v-13.189c0-14.496-11.813-26.286-26.319-26.244
		c-14.506,0.041-26.17,11.991-26.17,26.498v12.936c0,0.255,0.025,0.505,0.067,0.748c-4.13,2.785-6.847,7.508-6.847,12.866v35.039
		c0,8.563,6.941,15.506,15.506,15.506h35.039c8.564,0,15.507-6.943,15.507-15.506v-35.039
		C233.026,165.931,230.309,161.208,226.178,158.422z M203.479,186.446l1.52,18.077c0.07,0.843-0.594,1.566-1.439,1.566h-7.363
		c-0.848,0-1.514-0.726-1.439-1.571l1.594-18.201c0.067-0.77-0.249-1.524-0.85-2.009c-1.636-1.316-2.684-3.335-2.684-5.6
		c0-3.129,2.001-5.792,4.793-6.777c0.749-0.264,1.553-0.408,2.391-0.408c0.788,0,1.545,0.127,2.255,0.361
		c2.863,0.947,4.93,3.644,4.93,6.824c0,2.322-1.104,4.388-2.813,5.701C203.746,184.891,203.412,185.66,203.479,186.446z
		 M182.481,155.782c-0.074,0-0.147,0.002-0.22,0.002V144.68c0-9.789,7.847-17.878,17.636-17.934
		c9.828-0.056,17.842,7.922,17.842,17.739v11.3c-0.072-0.001-0.146-0.003-0.219-0.003H182.481L182.481,155.782z"/>
</g>
</svg>
