<?xml version="1.0" encoding="utf-8"?>
<!-- Generator: Adobe Illustrator 16.0.0, SVG Export Plug-In . SVG Version: 6.00 Build 0)  -->
<!DOCTYPE svg PUBLIC "-//W3C//DTD SVG 1.1//EN" "http://www.w3.org/Graphics/SVG/1.1/DTD/svg11.dtd">
<svg version="1.1" id="Layer_1" xmlns="http://www.w3.org/2000/svg" xmlns:xlink="http://www.w3.org/1999/xlink" x="0px" y="0px"
	 width="800px" height="400px" viewBox="0 0 800 400" enable-background="new 0 0 800 400" xml:space="preserve">
<rect x="0" y="0" fill="#153E5C" width="800" height="400"/>
<path fill="none" d="M177.778,116.814h-15.024c-3.293,0-5.961,2.668-5.961,5.963v15.979h26.947v-15.979
	C183.74,119.482,181.067,116.814,177.778,116.814z"/>
<path fill="none" d="M180.356,142.258h-20.134c-3.139,0-5.683,3.104-5.683,6.938v116.153h31.501V149.195
	C186.041,145.362,183.494,142.258,180.356,142.258z"/>
<path fill="#F2BE54" d="M274.708,24.457h-29.25c-1.929,0-2.947,0.913-3.44,2.292h-33.095c-4.871,0-6.563,2.31-9.423,5.108
	c-2.116,2.068-5.24,7.035-11.354,7.035c-6.806,0-6.806,0-6.806,0s1.014-4-6.896-4s-6.896,4-6.896,4s0,0-6.807,0
	c-6.112,0-9.241-4.966-11.353-7.035c-2.861-2.799-4.551-5.108-9.425-5.108h-33.086c-0.494-1.383-1.516-2.292-3.443-2.292H74.186
	c-3.091,0-3.862,2.336-3.862,5.214c0,2.882,0.771,5.219,3.862,5.219h29.248c1.26,0,2.117-0.403,2.707-1.054l16.245,0.02
	c0,0-0.591,7.424-14.32,7.424c-11.3,0-12.655,0-12.781,0l-5.104,4.05h6.299c0,0-0.688-1.195,20.457-1.195
	c11.994,0,13.928-10.259,13.928-10.264l10.021,0.014c0,0,2.096,2.409,5.655,6.068c3.268,3.359,8.826,6.022,14.25,6.022h8.736
	c0,0,0,16.412,0,20.364c0,3.956-3.4,9.84-3.4,19.216c0,9.377,0,17.806,0,20.871c0,3.063,3.4,1.901,3.4,2.943c0,1.041,0,2.88,0,2.88
	h-6.296c-4.913,0-8.896,3.982-8.896,8.897v17.563c-1.643,1.501-2.689,3.632-2.689,6.032v114.426h-6.437v-30.222v-4.171h-4.17h-2.175
	c-0.651-0.884-1.652-1.499-2.835-1.499h-18.998c-1.979,0-3.585,1.609-3.585,3.587c0,1.98,1.606,3.586,3.585,3.586h18.998
	c1.186,0,2.189-0.615,2.839-1.503h2.172v30.218v4.171v0.074h4.17v-0.074h6.437v0.074c0,2.442,1.977,4.412,4.413,4.412
	c2.439,0,4.417-1.97,4.417-4.412v-0.074h3.95v102.181v0.005c0,5.537,4.487,10.022,10.021,10.022c5.534,0,10.021-4.485,10.021-10.022
	v-0.005V263.335h3.952v0.074c0,2.439,1.977,4.412,4.412,4.412c2.44,0,4.414-1.973,4.414-4.412v-0.074h6.433v30.29v4.172h4.169h2.176
	c0.654,0.886,1.653,1.5,2.839,1.5h18.999c1.98,0,3.585-1.604,3.585-3.586c0-1.979-1.604-3.587-3.585-3.587h-18.999
	c-1.183,0-2.183,0.614-2.837,1.501h-2.179v-30.29v-4.171h-4.169h-6.433V144.736c0-2.396-1.047-4.529-2.688-6.031v-17.563
	c0-4.913-3.983-8.896-8.896-8.896h-6.297c0,0,0-1.84,0-2.882c0-1.041,3.402,0.122,3.402-2.941c0-3.065,0-11.492,0-20.871
	c0-9.38-3.402-15.264-3.402-19.216c0-3.95,0-20.364,0-20.364h8.736c5.424,0,10.979-2.663,14.251-6.024
	c3.56-3.656,5.654-6.068,5.654-6.068l10.021-0.015c0,0.008,1.932,10.266,13.927,10.266c21.148,0,20.458,1.195,20.458,1.195h6.3
	l-5.103-4.046c-0.127,0-1.477,0-12.781,0c-13.729,0-14.318-7.424-14.318-7.424l16.244-0.02c0.592,0.652,1.447,1.053,2.705,1.053
	h29.25c3.092,0,3.863-2.336,3.863-5.219C278.571,26.793,277.8,24.457,274.708,24.457z M188.421,259.164h-3.952V156.983
	c0-5.533-4.487-10.02-10.021-10.02s-10.021,4.486-10.021,10.02v102.182h-3.95V150.706c0-3.721,2.467-6.731,5.514-6.731h16.917
	c3.045,0,5.518,3.011,5.518,6.731v108.458H188.421z M181.734,119.283c3.193,0,5.784,2.589,5.784,5.785v11.462h-26.146v-11.462
	c0-3.196,2.59-5.785,5.783-5.785H181.734z"/>
<path fill="#F2BE54" d="M722.855,154.645c-4.559-9.544-10.637-17.046-18.258-22.51c-7.633-5.463-15.498-8.971-23.629-10.524
	c-8.131-1.548-19.715-2.323-34.756-2.323h-54.428H474.818v17.599h18.215v105.529h-18.215h-17.193l-24.865-51.201
	c19.334-4.783,29.002-16.487,29.002-35.106c0-8.899-2.281-16.338-6.873-22.304c-4.586-5.966-10.391-9.879-17.398-11.733
	c-7.02-1.856-16.498-2.782-28.439-2.782h-57.166h-56.048v17.599h17.665l-28.388,43.507l-31.087-43.509h17.729v-17.599h-57.875
	v17.599h17.203l41.887,59.086v46.442h-18.922v17.609h59.392v-17.609h-19.224v-46.441l39.051-59.087h18.617h19.322v105.529h-19.322
	v17.609h58.578v-17.609h-18.005v-48.159h19.825l32.051,65.77h30.477h116.969V216.81h-17.412v25.604h-60.096v-46.032h52.314V178.78
	h-52.314v-41.895h60.096v24.795h17.412v-24.795h19.119v100.972v4.558v17.609h32.074c15.178,0,27.664-1.004,37.484-2.986
	c9.82-1.991,18.273-5.512,25.393-10.576c7.121-5.061,12.873-12.715,17.258-22.973c4.383-10.251,6.568-22.319,6.568-36.219
	C729.681,175.066,727.404,164.189,722.855,154.645z M409.051,176.648h-16.593v-39.763h18.005c7.424,0,12.936,0.427,16.549,1.269
	c3.615,0.846,6.65,2.853,9.107,6.021c2.461,3.172,3.695,7.049,3.695,11.637c0,5.398-1.213,9.696-3.643,12.901
	c-2.438,3.206-5.545,5.334-9.363,6.372C423.002,176.129,417.076,176.648,409.051,176.648z M703.283,215.201
	c-3.109,7.553-7.15,13.201-12.15,16.94c-4.98,3.748-11.105,6.397-18.363,7.949c-7.246,1.55-17.078,2.322-29.49,2.322h-11.123
	V136.885h12.045c16.453,0,28.641,1.305,36.568,3.899c7.932,2.597,14.432,8.148,19.531,16.642c5.096,8.502,7.641,18.854,7.641,31.063
	C707.937,198.742,706.381,207.648,703.283,215.201z"/>
</svg>
