<?xml version="1.0" encoding="utf-8"?>
<!-- Generator: Adobe Illustrator 16.0.0, SVG Export Plug-In . SVG Version: 6.00 Build 0)  -->
<!DOCTYPE svg PUBLIC "-//W3C//DTD SVG 1.1//EN" "http://www.w3.org/Graphics/SVG/1.1/DTD/svg11.dtd">
<svg version="1.1" id="Layer_1" xmlns="http://www.w3.org/2000/svg" xmlns:xlink="http://www.w3.org/1999/xlink" x="0px" y="0px"
	 width="825.978px" height="231.973px" viewBox="0 0 825.978 231.973" enable-background="new 0 0 825.978 231.973"
	 xml:space="preserve">
<path fill="#00ADEF" d="M184.648,109.876c-0.825,17.99-13.383,42.622-37.676,73.887c-25.118,32.656-46.368,48.985-63.752,48.985
	c-10.765,0-19.881-9.94-27.323-29.834c-4.971-18.231-9.941-36.464-14.911-54.693c-5.528-19.883-11.455-29.834-17.796-29.834
	c-1.381,0-6.219,2.909-14.498,8.703L0,115.89c9.117-8.013,18.111-16.026,26.961-24.051c12.158-10.51,21.287-16.038,27.372-16.595
	c14.377-1.382,23.226,8.449,26.548,29.493c3.588,22.705,6.073,36.828,7.467,42.354c4.146,18.839,8.704,28.247,13.686,28.247
	c3.867,0,9.673-6.11,17.42-18.33c7.734-12.22,11.88-21.517,12.437-27.905c1.104-10.546-3.042-15.833-12.437-15.833
	c-4.425,0-8.983,1.019-13.674,3.031c9.08-29.749,26.427-44.198,52.029-43.374C176.792,73.486,185.739,85.802,184.648,109.876"/>
<path fill="#00ADEF" d="M298.671,168.148c-7.747,14.644-18.39,27.906-31.942,39.786c-18.536,16.026-37.058,24.04-55.581,24.04
	c-8.583,0-15.153-2.765-19.711-8.293c-4.558-5.528-6.704-12.703-6.425-21.555c0.266-9.113,3.103-23.213,8.497-42.282
	c5.395-19.068,8.098-29.299,8.098-30.682c0-7.177-2.497-10.775-7.467-10.775c-1.661,0-6.364,2.909-14.11,8.703l-9.541-11.201
	c8.849-8.013,17.698-16.026,26.548-24.051c11.892-10.51,20.741-16.038,26.56-16.596c9.116-0.824,15.82,1.855,20.111,8.062
	c4.279,6.206,5.868,14.256,4.777,24.172c-3.601,16.813-7.481,38.161-11.626,64.053c-0.279,11.856,4.012,17.771,12.862,17.771
	c3.867,0,10.776-4.084,20.741-12.278c8.292-6.813,15.068-13.227,20.329-19.238L298.671,168.148z M262.582,20.632
	c-0.278,6.885-3.733,13.492-10.376,19.821c-7.467,7.151-16.317,10.728-26.548,10.728c-15.76,0-23.372-6.874-22.814-20.633
	c0.266-7.152,4.484-14.037,12.643-20.644C223.646,3.31,232.7,0,242.665,0c5.807,0,10.644,2.279,14.523,6.813
	C261.055,11.359,262.849,15.965,262.582,20.632"/>
<path fill="#00ADEF" d="M557.719,168.148c-7.746,14.645-18.391,27.906-31.943,39.786c-18.534,16.026-37.059,24.039-55.58,24.039
	c-17.991,0-26.692-9.941-26.137-29.846c0.267-8.85,2.001-19.48,5.176-31.918c3.177-12.438,4.911-22.111,5.189-29.021
	c0.279-10.498-2.91-15.759-9.577-15.759c-7.212,0-15.807,8.582-25.795,25.722c-10.547,17.979-16.244,35.398-17.069,52.261
	c-0.557,11.903,0.606,21.032,3.491,27.385c-19.298,0.558-32.817-2.63-40.526-9.54c-6.91-6.085-10.074-16.171-9.516-30.282
	c0.266-8.849,1.624-17.698,4.072-26.547c2.437-8.85,3.795-16.729,4.074-23.652c0.558-10.229-3.188-15.346-11.213-15.346
	c-6.934,0-14.414,7.891-22.439,23.65c-8.025,15.759-12.461,32.221-13.286,49.362c-0.558,15.492,0.436,26.27,2.971,32.354
	c-18.985,0.558-32.465-3.444-40.441-12.002c-6.619-7.163-9.637-18.049-9.08-32.669c0.267-7.165,1.527-17.166,3.806-29.991
	c2.279-12.826,3.552-22.814,3.82-29.99c0.545-4.958-0.704-7.444-3.734-7.444c-1.661,0-6.365,2.801-14.111,8.391l-9.952-11.201
	c1.382-1.091,10.086-9.117,26.136-24.052c11.613-10.776,19.492-16.304,23.638-16.583c7.189-0.557,12.995,2.413,17.42,8.91
	c4.424,6.498,6.643,14.038,6.643,22.608c0,2.764-0.279,5.394-0.824,7.88c4.146-6.352,8.983-11.892,14.522-16.596
	c12.717-11.055,26.961-17.287,42.721-18.668c13.552-1.103,23.226,2.073,29.045,9.54c4.69,6.085,6.897,14.802,6.631,26.136
	c1.939-1.648,4.013-3.454,6.23-5.394c6.354-7.467,12.572-13.407,18.657-17.833c10.23-7.467,20.886-11.613,31.941-12.449
	c13.273-1.103,22.813,2.061,28.621,9.504c4.97,6.061,7.188,14.741,6.643,26.026c-0.278,7.722-2.145,18.949-5.6,33.689
	c-3.468,14.741-5.189,23.202-5.189,25.408c-0.277,5.794,0.28,9.783,1.661,11.989c1.382,2.206,4.691,3.296,9.953,3.296
	c3.867,0,10.775-4.084,20.74-12.278c8.293-6.813,15.067-13.226,20.33-19.238L557.719,168.148z"/>
<path fill="#00ADEF" d="M713.272,167.723c-8.025,13.264-23.782,26.514-47.289,39.764c-29.312,16.849-59.048,25.263-89.183,25.263
	c-22.403,0-38.453-7.468-48.127-22.391c-6.91-10.231-10.232-22.391-9.952-36.501c0.267-22.39,10.232-43.676,29.869-63.873
	c21.566-22.111,47.011-33.178,76.323-33.178c27.104,0,41.481,11.043,43.143,33.106c1.103,14.061-6.644,28.547-23.226,43.446
	c-17.711,16.28-39.98,26.62-66.794,31.032c4.97,6.897,12.436,10.341,22.4,10.341c19.905,0,41.616-5.055,65.133-15.189
	c16.862-7.115,30.138-14.51,39.822-22.172L713.272,167.723z M619.106,124.412c0.268-7.419-2.764-11.141-9.115-11.141
	c-8.291,0-16.705,5.71-25.264,17.128c-8.558,11.419-12.982,22.354-13.25,32.804c-0.157,0-0.157,1.794,0,5.37
	c13.528-4.946,25.264-12.51,35.204-22.693C614.682,137.08,618.827,129.916,619.106,124.412"/>
<path fill="#00ADEF" d="M825.878,139.917c-1.113,25.407-10.51,47.362-28.208,65.859c-17.697,18.499-39.688,27.749-65.958,27.749
	c-21.845,0-38.439-7.044-49.773-21.129c-8.291-10.486-12.862-23.604-13.686-39.336c-1.394-23.749,7.176-45.57,25.723-65.45
	c19.905-22.087,44.925-33.13,75.074-33.13c19.348,0,34.004,6.498,43.967,19.469C822.423,105.829,826.704,121.151,825.878,139.917
	 M779.001,138.353c0.28-7.479-0.763-14.343-3.114-20.573c-2.353-6.23-5.745-9.358-10.159-9.358
	c-14.109,0-25.725,7.625-34.838,22.864c-7.76,12.474-11.905,25.771-12.45,39.893c-0.278,6.935,0.969,13.033,3.732,18.293
	c3.03,6.099,7.322,9.141,12.862,9.141c12.438,0,23.094-7.333,31.943-22.026C774.444,164.391,778.446,151.65,779.001,138.353"/>
</svg>
