<?xml version="1.0" encoding="utf-8"?>
<!-- Generator: Adobe Illustrator 16.0.0, SVG Export Plug-In . SVG Version: 6.00 Build 0)  -->
<!DOCTYPE svg PUBLIC "-//W3C//DTD SVG 1.1//EN" "http://www.w3.org/Graphics/SVG/1.1/DTD/svg11.dtd">
<svg version="1.1" xmlns="http://www.w3.org/2000/svg" xmlns:xlink="http://www.w3.org/1999/xlink" x="0px" y="0px" width="1920px"
	 height="1080px" viewBox="0 0 1920 1080" enable-background="new 0 0 1920 1080" xml:space="preserve">
<g id="M">
	<polygon points="1155.473,260.721 1093.596,409.223 1087.973,422.72 1082.395,409.223 1021.012,260.721 979.973,260.721 
		979.973,409.223 979.973,425.421 979.973,606.32 1012.373,606.32 1012.373,425.421 1012.373,409.223 1012.373,317.961 
		1051.031,409.223 1057.895,425.421 1078.252,473.482 1097.693,473.482 1118.053,425.421 1124.914,409.223 1163.574,317.961 
		1163.574,409.223 1163.574,425.421 1163.574,606.32 1195.973,606.32 1195.973,260.721 	"/>
</g>
<g id="C">
	<path d="M940.027,312.02v-29.701c0-48.059-38.342-86.399-86.4-86.399H810.43c-47.523,0-86.402,38.341-86.402,86.399v65.071v107.188
		c0,47.52,38.879,86.942,86.402,86.942h43.197c48.059,0,86.4-39.422,86.4-86.942v-29.698h-32.4v29.698c0,29.701-24.301,54-54,54
		H810.43c-29.701,0-54.004-24.299-54.004-54V347.39v-65.071c0-30.24,23.764-53.999,54.004-53.999h43.197
		c30.24,0,54,23.759,54,53.999v29.701H940.027z"/>
</g>
<g id="Layer_1">
	<rect x="724.027" y="352.221" fill="#991B1F" width="471.945" height="32.399"/>
</g>
<g id="left_line">
	<rect x="724.027" y="573.918" width="216" height="32.402"/>
</g>
<g id="right_line">
	<rect x="979.973" y="195.919" width="216" height="32.4"/>
</g>
<g id="right_M_bar">
	<rect x="1163.574" y="351.471" width="32.398" height="34.333"/>
</g>
<g id="left_M_bar">
	<rect x="979.973" y="351.471" width="32.4" height="34.333"/>
</g>
<g id="sub_heading">
	<g>
		<path d="M692.958,720.738v4.951h-1.297v-4.021h-6.054v4.021h-1.297v-4.951l3.545-10.184h1.558L692.958,720.738z M685.824,720.371
			h5.643l-2.725-7.891h-0.194L685.824,720.371z"/>
		<path d="M701.388,711.854v12.537h3.676v1.299h-4.973h-3.676v-1.299h3.676v-12.537h-3.676v-1.299h4.973h3.676v1.299H701.388z"/>
		<path d="M711.288,728.174l1.383-4.105h1.298l-0.346,1.318l-1.643,2.787H711.288z"/>
		<path d="M734.028,721.127v0.973c0,1.254,1.038,2.291,2.291,2.291h1.449c1.34,0,2.313-0.885,2.313-2.074
			c0-3.416-7.134-4.777-7.134-8.604c0-1.883,1.47-3.158,3.589-3.158h1.016c1.989,0,3.61,1.602,3.61,3.59v0.648h-1.297v-0.648
			c0-1.275-1.038-2.291-2.313-2.291h-1.016c-1.405,0-2.291,0.734-2.291,1.859c0,2.744,7.134,4.279,7.134,8.604
			c0,1.902-1.557,3.373-3.61,3.373h-1.449c-1.988,0-3.589-1.602-3.589-3.59v-0.973H734.028z"/>
		<path d="M753.483,718.123v1.988h-0.108v0.129h-7.242v1.969c0,1.188,0.973,2.162,2.162,2.162h1.729
			c1.189,0,2.162-0.975,2.162-2.162v-0.326h1.297v0.326c0,1.902-1.535,3.48-3.459,3.48h-1.729c-1.902,0-3.459-1.578-3.459-3.48
			v-4.086c0-1.926,1.557-3.459,3.459-3.459h1.729C751.948,714.664,753.483,716.197,753.483,718.123z M752.187,718.123
			c0-1.211-0.952-2.162-2.162-2.162h-1.729c-1.211,0-2.162,0.951-2.162,2.162v1.037h6.054V718.123z"/>
		<path d="M762.13,715.961H760.4c-1.211,0-2.162,0.951-2.162,2.162v4.086c0,1.188,0.973,2.162,2.162,2.162h1.729
			c1.189,0,2.162-0.975,2.162-2.162v-0.326h1.296v0.326c0,1.902-1.534,3.48-3.458,3.48H760.4c-1.902,0-3.459-1.578-3.459-3.48
			v-4.086c0-1.926,1.557-3.459,3.459-3.459h1.729c1.924,0,3.458,1.533,3.458,3.459v0.322h-1.296v-0.322
			C764.292,716.912,763.34,715.961,762.13,715.961z"/>
		<path d="M777.694,714.664v11.025h-1.297v-1.471l-2.14,1.471h-1.752c-1.902,0-3.459-1.559-3.459-3.459v-7.566h1.297v7.566
			c0,1.188,0.974,2.16,2.162,2.16h1.341l2.551-1.729v-7.998H777.694z"/>
		<path d="M789.8,718.123v0.756h-1.298v-0.756c0-1.189-0.973-2.162-2.162-2.162h-0.346l-3.545,2.355v7.373h-1.298v-11.025h1.298
			v2.117l3.135-2.117h0.756C788.242,714.664,789.8,716.197,789.8,718.123z"/>
		<path d="M801.904,724.391v1.299h-5.08h-3.568v-1.299h3.568v-8.43h-3.568v-1.297h4.864v9.727H801.904z M798.12,712.393h-1.729
			v-1.621h1.729V712.393z"/>
		<path d="M810.011,715.961v6.27c0,1.209,0.95,2.16,2.161,2.16h1.837v1.299h-1.837c-1.924,0-3.459-1.535-3.459-3.459v-6.27h-3.352
			v-1.297h3.352v-2.596h1.298v2.596h3.998v1.297H810.011z"/>
		<path d="M826.115,714.664l-5.707,15.564h-1.384l1.945-5.34l-3.502-10.225h1.383l2.811,8.322l3.069-8.322H826.115z"/>
		<path d="M842.975,711.854v5.145h6.484v1.297h-6.484v6.096h7.351v1.299h-8.648v-7.395v-6.441v-1.299h8.648v1.299H842.975z"/>
		<path d="M862.43,718.123v7.566h-1.297v-7.566c0-1.189-0.973-2.162-2.162-2.162h-1.34l-2.551,1.729v8h-1.298v-11.025h1.298v1.447
			l2.14-1.447h1.751C860.873,714.664,862.43,716.197,862.43,718.123z"/>
		<path d="M874.536,714.664v12.084c0,1.924-1.536,3.48-3.46,3.48h-1.729c-1.903,0-3.46-1.578-3.46-3.48h1.298
			c0,1.189,0.973,2.162,2.162,2.162h1.729c1.189,0,2.162-0.973,2.162-2.162v-2.508l-2.14,1.449h-1.751
			c-1.903,0-3.46-1.559-3.46-3.459v-4.107c0-1.926,1.557-3.459,3.46-3.459h1.751l2.14,1.447v-1.447H874.536z M873.238,722.662
			v-4.973l-2.551-1.729h-1.34c-1.189,0-2.162,0.973-2.162,2.162v4.107c0,1.188,0.973,2.16,2.162,2.16h1.34L873.238,722.662z"/>
		<path d="M886.641,724.391v1.299h-5.08h-3.568v-1.299h3.568v-8.43h-3.568v-1.297h4.864v9.727H886.641z M882.856,712.393h-1.729
			v-1.621h1.729V712.393z"/>
		<path d="M898.745,718.123v7.566h-1.297v-7.566c0-1.189-0.973-2.162-2.162-2.162h-1.341l-2.551,1.729v8h-1.297v-11.025h1.297v1.447
			l2.141-1.447h1.751C897.188,714.664,898.745,716.197,898.745,718.123z"/>
		<path d="M910.85,718.123v1.988h-0.106v0.129H903.5v1.969c0,1.188,0.973,2.162,2.162,2.162h1.729c1.189,0,2.162-0.975,2.162-2.162
			v-0.326h1.296v0.326c0,1.902-1.534,3.48-3.458,3.48h-1.729c-1.902,0-3.459-1.578-3.459-3.48v-4.086
			c0-1.926,1.557-3.459,3.459-3.459h1.729C909.315,714.664,910.85,716.197,910.85,718.123z M909.554,718.123
			c0-1.211-0.952-2.162-2.162-2.162h-1.729c-1.211,0-2.162,0.951-2.162,2.162v1.037h6.054V718.123z"/>
		<path d="M922.956,718.123v1.988h-0.107v0.129h-7.243v1.969c0,1.188,0.974,2.162,2.162,2.162h1.729
			c1.189,0,2.162-0.975,2.162-2.162v-0.326h1.297v0.326c0,1.902-1.535,3.48-3.459,3.48h-1.729c-1.902,0-3.459-1.578-3.459-3.48
			v-4.086c0-1.926,1.557-3.459,3.459-3.459h1.729C921.421,714.664,922.956,716.197,922.956,718.123z M921.659,718.123
			c0-1.211-0.952-2.162-2.162-2.162h-1.729c-1.211,0-2.162,0.951-2.162,2.162v1.037h6.054V718.123z"/>
		<path d="M935.062,718.123v0.756h-1.298v-0.756c0-1.189-0.973-2.162-2.162-2.162h-0.346l-3.545,2.355v7.373h-1.298v-11.025h1.298
			v2.117l3.135-2.117h0.756C933.504,714.664,935.062,716.197,935.062,718.123z"/>
		<path d="M947.166,724.391v1.299h-5.081h-3.567v-1.299h3.567v-8.43h-3.567v-1.297h4.864v9.727H947.166z M943.382,712.393h-1.729
			v-1.621h1.729V712.393z"/>
		<path d="M959.271,718.123v7.566h-1.297v-7.566c0-1.189-0.973-2.162-2.161-2.162h-1.341l-2.551,1.729v8h-1.298v-11.025h1.298v1.447
			l2.14-1.447h1.752C957.715,714.664,959.271,716.197,959.271,718.123z"/>
		<path d="M971.377,714.664v12.084c0,1.924-1.535,3.48-3.459,3.48h-1.73c-1.902,0-3.459-1.578-3.459-3.48h1.297
			c0,1.189,0.973,2.162,2.162,2.162h1.73c1.189,0,2.162-0.973,2.162-2.162v-2.508l-2.141,1.449h-1.752
			c-1.902,0-3.459-1.559-3.459-3.459v-4.107c0-1.926,1.557-3.459,3.459-3.459h1.752l2.141,1.447v-1.447H971.377z M970.08,722.662
			v-4.973l-2.551-1.729h-1.342c-1.189,0-2.162,0.973-2.162,2.162v4.107c0,1.188,0.973,2.16,2.162,2.16h1.342L970.08,722.662z"/>
		<path d="M977.602,728.174l1.383-4.105h1.297l-0.346,1.318l-1.643,2.787H977.602z"/>
		<path d="M1002.504,725.689c-1.904,0-3.461-1.578-3.461-3.48v-8.193c0-1.926,1.557-3.461,3.461-3.461h1.729
			c1.924,0,3.459,1.535,3.459,3.461v8.193c0,1.902-1.535,3.48-3.459,3.48H1002.504z M1006.395,722.209v-8.193
			c0-1.211-0.951-2.162-2.162-2.162h-1.729c-1.213,0-2.162,0.951-2.162,2.162v8.193c0,1.188,0.973,2.162,2.162,2.162h1.729
			C1005.422,724.371,1006.395,723.396,1006.395,722.209z"/>
		<path d="M1019.797,718.123v4.107c0,1.9-1.557,3.459-3.459,3.459h-1.752l-2.139-1.449v5.988h-1.299v-15.564h1.299v1.447
			l2.139-1.447h1.752C1018.24,714.664,1019.797,716.221,1019.797,718.123z M1018.5,718.123c0-1.189-0.973-2.162-2.162-2.162h-1.34
			l-2.551,1.729v4.973l2.551,1.729h1.34c1.189,0,2.162-0.973,2.162-2.16V718.123z"/>
		<path d="M1031.902,718.123v1.988h-0.109v0.129h-7.242v1.969c0,1.188,0.973,2.162,2.162,2.162h1.73
			c1.188,0,2.162-0.975,2.162-2.162v-0.326h1.297v0.326c0,1.902-1.537,3.48-3.459,3.48h-1.73c-1.902,0-3.459-1.578-3.459-3.48
			v-4.086c0-1.926,1.557-3.459,3.459-3.459h1.73C1030.365,714.664,1031.902,716.197,1031.902,718.123z M1030.605,718.123
			c0-1.211-0.953-2.162-2.162-2.162h-1.73c-1.211,0-2.162,0.951-2.162,2.162v1.037h6.055V718.123z"/>
		<path d="M1044.006,718.123v0.756h-1.297v-0.756c0-1.189-0.973-2.162-2.162-2.162h-0.346l-3.545,2.355v7.373h-1.297v-11.025h1.297
			v2.117l3.135-2.117h0.756C1042.449,714.664,1044.006,716.197,1044.006,718.123z"/>
		<path d="M1056.111,714.664v11.025h-1.297v-1.449l-2.139,1.449h-1.752c-1.902,0-3.459-1.559-3.459-3.459v-4.107
			c0-1.926,1.557-3.459,3.459-3.459h1.752l2.139,1.447v-1.447H1056.111z M1054.814,722.662v-4.973l-2.551-1.729h-1.34
			c-1.189,0-2.162,0.973-2.162,2.162v4.107c0,1.188,0.973,2.16,2.162,2.16h1.34L1054.814,722.662z"/>
		<path d="M1064.219,715.961v6.27c0,1.209,0.951,2.16,2.16,2.16h1.84v1.299h-1.84c-1.924,0-3.457-1.535-3.457-3.459v-6.27h-3.352
			v-1.297h3.352v-2.596h1.297v2.596h4v1.297H1064.219z"/>
		<path d="M1080.322,724.391v1.299h-5.08h-3.568v-1.299h3.568v-8.43h-3.568v-1.297h4.865v9.727H1080.322z M1076.539,712.393h-1.73
			v-1.621h1.73V712.393z"/>
		<path d="M1087.238,725.689c-1.902,0-3.459-1.559-3.459-3.459v-4.107c0-1.926,1.557-3.459,3.459-3.459h1.73
			c1.922,0,3.459,1.533,3.459,3.459v4.107c0,1.924-1.537,3.459-3.459,3.459H1087.238z M1091.129,722.23v-4.107
			c0-1.211-0.951-2.162-2.16-2.162h-1.73c-1.211,0-2.162,0.951-2.162,2.162v4.107c0,1.188,0.973,2.141,2.162,2.141h1.73
			C1090.178,724.371,1091.129,723.418,1091.129,722.23z"/>
		<path d="M1104.531,718.123v7.566h-1.295v-7.566c0-1.189-0.975-2.162-2.162-2.162h-1.342l-2.551,1.729v8h-1.297v-11.025h1.297
			v1.447l2.141-1.447h1.752C1102.977,714.664,1104.531,716.197,1104.531,718.123z"/>
		<path d="M1116.639,714.664v11.025h-1.297v-1.449l-2.141,1.449h-1.752c-1.902,0-3.459-1.559-3.459-3.459v-4.107
			c0-1.926,1.557-3.459,3.459-3.459h1.752l2.141,1.447v-1.447H1116.639z M1115.342,722.662v-4.973l-2.551-1.729h-1.342
			c-1.189,0-2.162,0.973-2.162,2.162v4.107c0,1.188,0.973,2.16,2.162,2.16h1.342L1115.342,722.662z"/>
		<path d="M1128.742,724.391v1.299h-5.08h-3.566v-1.299h3.566v-12.754h-3.566v-1.297h4.863v14.051H1128.742z"/>
		<path d="M1149.797,718.748l3.156,6.941h-1.428l-3.133-6.918h-2.789v6.918h-1.299v-15.135h1.299h3.891
			c1.924,0,3.459,1.535,3.459,3.461v1.295C1152.953,717.127,1151.57,718.619,1149.797,718.748z M1151.656,714.016
			c0-1.211-0.951-2.162-2.162-2.162h-3.891v5.619h3.891c1.211,0,2.162-0.949,2.162-2.162V714.016z"/>
		<path d="M1165.059,718.123v1.988h-0.107v0.129h-7.242v1.969c0,1.188,0.973,2.162,2.162,2.162h1.729
			c1.189,0,2.162-0.975,2.162-2.162v-0.326h1.297v0.326c0,1.902-1.535,3.48-3.459,3.48h-1.729c-1.902,0-3.461-1.578-3.461-3.48
			v-4.086c0-1.926,1.559-3.459,3.461-3.459h1.729C1163.523,714.664,1165.059,716.197,1165.059,718.123z M1163.762,718.123
			c0-1.211-0.951-2.162-2.162-2.162h-1.729c-1.213,0-2.162,0.951-2.162,2.162v1.037h6.053V718.123z"/>
		<path d="M1169.813,722.164v0.758c0,0.799,0.887,1.469,2.033,1.469h1.967c1.34,0,2.055-0.582,2.055-1.535
			c0-3.307-7.156-1.512-7.156-5.49c0-1.621,1.297-2.701,3.199-2.701h1.729c1.73,0,3.135,1.23,3.135,2.789v0.41h-1.297v-0.41
			c0-0.822-0.822-1.492-1.838-1.492h-1.729c-1.211,0-1.902,0.563-1.902,1.404c0,2.529,7.156,0.973,7.156,5.49
			c0,1.73-1.32,2.834-3.352,2.834h-1.967c-1.838,0-3.33-1.232-3.33-2.768v-0.758H1169.813z"/>
		<path d="M1189.268,718.123v1.988h-0.107v0.129h-7.242v1.969c0,1.188,0.973,2.162,2.162,2.162h1.729
			c1.189,0,2.162-0.975,2.162-2.162v-0.326h1.297v0.326c0,1.902-1.535,3.48-3.459,3.48h-1.729c-1.902,0-3.459-1.578-3.459-3.48
			v-4.086c0-1.926,1.557-3.459,3.459-3.459h1.729C1187.732,714.664,1189.268,716.197,1189.268,718.123z M1187.971,718.123
			c0-1.211-0.951-2.162-2.162-2.162h-1.729c-1.211,0-2.162,0.951-2.162,2.162v1.037h6.053V718.123z"/>
		<path d="M1201.373,714.664v11.025h-1.297v-1.449l-2.139,1.449h-1.752c-1.902,0-3.459-1.559-3.459-3.459v-4.107
			c0-1.926,1.557-3.459,3.459-3.459h1.752l2.139,1.447v-1.447H1201.373z M1200.076,722.662v-4.973l-2.551-1.729h-1.34
			c-1.189,0-2.162,0.973-2.162,2.162v4.107c0,1.188,0.973,2.16,2.162,2.16h1.34L1200.076,722.662z"/>
		<path d="M1213.48,718.123v0.756h-1.299v-0.756c0-1.189-0.973-2.162-2.162-2.162h-0.346l-3.545,2.355v7.373h-1.297v-11.025h1.297
			v2.117l3.135-2.117h0.756C1211.922,714.664,1213.48,716.197,1213.48,718.123z"/>
		<path d="M1222.125,715.961h-1.729c-1.213,0-2.162,0.951-2.162,2.162v4.086c0,1.188,0.973,2.162,2.162,2.162h1.729
			c1.189,0,2.162-0.975,2.162-2.162v-0.326h1.297v0.326c0,1.902-1.535,3.48-3.459,3.48h-1.729c-1.904,0-3.461-1.578-3.461-3.48
			v-4.086c0-1.926,1.557-3.459,3.461-3.459h1.729c1.924,0,3.459,1.533,3.459,3.459v0.322h-1.297v-0.322
			C1224.287,716.912,1223.336,715.961,1222.125,715.961z"/>
		<path d="M1237.689,718.123v7.566h-1.299v-7.566c0-1.189-0.973-2.162-2.16-2.162h-1.342l-2.551,1.729v8h-1.297v-15.35h1.297v5.771
			l2.141-1.447h1.752C1236.133,714.664,1237.689,716.197,1237.689,718.123z"/>
	</g>
</g>
<g id="name">
	<g>
		<path d="M708.385,662.332c0-4.031-3.168-7.199-7.201-7.199h-5.76c-4.033,0-7.201,3.168-7.201,7.199v27.291
			c0,3.961,3.24,7.201,7.201,7.201h5.76c3.96,0,7.201-3.24,7.201-7.201v-3.961h4.32v3.961c0,6.336-5.112,11.594-11.521,11.594h-5.76
			c-6.337,0-11.521-5.258-11.521-11.594v-27.291c0-6.408,5.185-11.52,11.521-11.52h5.76c6.409,0,11.521,5.111,11.521,11.52v3.961
			h-4.32V662.332z"/>
		<path d="M735.744,701.217c-6.336,0-11.521-5.186-11.521-11.521v-13.682c0-6.408,5.184-11.521,11.521-11.521h5.761
			c6.409,0,11.521,5.113,11.521,11.521v13.682c0,6.408-5.112,11.521-11.521,11.521H735.744z M748.705,689.695v-13.682
			c0-4.031-3.168-7.201-7.201-7.201h-5.761c-4.032,0-7.2,3.17-7.2,7.201v13.682c0,3.961,3.24,7.129,7.2,7.129h5.761
			C745.537,696.824,748.705,693.656,748.705,689.695z"/>
		<path d="M793.345,676.014v25.203h-4.32v-25.203c0-3.961-3.24-7.201-7.201-7.201h-4.464l-8.497,5.762v26.643h-4.321v-36.725h4.321
			v4.824l7.128-4.824h5.833C788.161,664.492,793.345,669.605,793.345,676.014z"/>
		<path d="M833.665,676.014v25.203h-4.32v-25.203c0-3.961-3.24-7.201-7.201-7.201h-4.464l-8.497,5.762v26.643h-4.32v-36.725h4.32
			v4.824l7.128-4.824h5.833C828.48,664.492,833.665,669.605,833.665,676.014z"/>
		<path d="M856.704,701.217c-6.337,0-11.521-5.186-11.521-11.521v-13.682c0-6.408,5.185-11.521,11.521-11.521h5.76
			c6.409,0,11.521,5.113,11.521,11.521v13.682c0,6.408-5.112,11.521-11.521,11.521H856.704z M869.665,689.695v-13.682
			c0-4.031-3.168-7.201-7.201-7.201h-5.76c-4.033,0-7.201,3.17-7.201,7.201v13.682c0,3.961,3.24,7.129,7.201,7.129h5.76
			C866.496,696.824,869.665,693.656,869.665,689.695z"/>
		<path d="M914.305,676.014v2.52h-4.32v-2.52c0-3.961-3.24-7.201-7.201-7.201h-1.152l-11.809,7.85v24.555h-4.32v-36.725h4.32v7.057
			l10.441-7.057h2.52C909.12,664.492,914.305,669.605,914.305,676.014z"/>
		<path d="M994.943,650.813v50.404h-4.32v-42.771l-8.783,20.736h-2.594l-8.783-20.736v42.771h-4.32v-50.404h5.471l8.93,21.602
			l9-21.602H994.943z"/>
		<path d="M1035.264,664.492v36.725h-4.32v-4.824l-7.129,4.824h-5.832c-6.336,0-11.521-5.186-11.521-11.521v-13.682
			c0-6.408,5.186-11.521,11.521-11.521h5.832l7.129,4.824v-4.824H1035.264z M1030.943,691.135v-16.561l-8.496-5.762h-4.465
			c-3.961,0-7.201,3.24-7.201,7.201v13.682c0,3.961,3.24,7.201,7.201,7.201h4.465L1030.943,691.135z"/>
		<path d="M1062.262,668.813v20.883c0,4.033,3.17,7.201,7.201,7.201h6.121v4.32h-6.121c-6.408,0-11.521-5.113-11.521-11.521v-20.883
			h-11.16v-4.32h11.16v-8.641h4.32v8.641h13.322v4.32H1062.262z"/>
		<path d="M1102.582,668.813v20.883c0,4.033,3.168,7.201,7.201,7.201h6.121v4.32h-6.121c-6.408,0-11.521-5.113-11.521-11.521
			v-20.883h-11.16v-4.32h11.16v-8.641h4.32v8.641h13.322v4.32H1102.582z"/>
		<path d="M1131.742,689.479V692c0,2.664,2.951,4.896,6.768,4.896h6.553c4.465,0,6.84-1.945,6.84-5.113
			c0-11.018-23.834-5.041-23.834-18.289c0-5.4,4.32-9.002,10.658-9.002h5.76c5.76,0,10.441,4.105,10.441,9.289v1.369h-4.32v-1.369
			c0-2.736-2.736-4.969-6.121-4.969h-5.76c-4.033,0-6.338,1.873-6.338,4.682c0,8.424,23.834,3.24,23.834,18.289
			c0,5.762-4.391,9.434-11.16,9.434h-6.553c-6.121,0-11.088-4.105-11.088-9.217v-2.521H1131.742z"/>
		<path d="M1179.262,701.217c-6.336,0-11.52-5.186-11.52-11.521v-13.682c0-6.408,5.184-11.521,11.52-11.521h5.762
			c6.408,0,11.52,5.113,11.52,11.521v13.682c0,6.408-5.111,11.521-11.52,11.521H1179.262z M1192.223,689.695v-13.682
			c0-4.031-3.168-7.201-7.199-7.201h-5.762c-4.031,0-7.199,3.17-7.199,7.201v13.682c0,3.961,3.24,7.129,7.199,7.129h5.762
			C1189.055,696.824,1192.223,693.656,1192.223,689.695z"/>
		<path d="M1236.863,676.014v25.203h-4.32v-25.203c0-3.961-3.24-7.201-7.201-7.201h-4.465l-8.496,5.762v26.643h-4.32v-36.725h4.32
			v4.824l7.129-4.824h5.832C1231.68,664.492,1236.863,669.605,1236.863,676.014z"/>
	</g>
	<g>
	</g>
	<g>
	</g>
	<g>
	</g>
	<g>
	</g>
	<g>
	</g>
	<g>
	</g>
</g>
</svg>
