<?xml version="1.0" encoding="utf-8"?>
<!-- Generator: Adobe Illustrator 16.0.0, SVG Export Plug-In . SVG Version: 6.00 Build 0)  -->
<!DOCTYPE svg PUBLIC "-//W3C//DTD SVG 1.1//EN" "http://www.w3.org/Graphics/SVG/1.1/DTD/svg11.dtd">
<svg version="1.1" id="Layer_1" xmlns="http://www.w3.org/2000/svg" xmlns:xlink="http://www.w3.org/1999/xlink" x="0px" y="0px"
	 width="400px" height="400px" viewBox="0 0 400 400" enable-background="new 0 0 400 400" xml:space="preserve">
<rect x="216.917" y="26.193" width="182.955" height="27.443"/>
<rect x="0.128" y="346.362" width="182.954" height="27.444"/>
<polygon points="365.567,81.08 313.156,206.862 308.396,218.295 303.669,206.862 251.678,81.08 216.917,81.08 216.917,206.862 
	216.917,220.583 216.917,373.807 244.36,373.807 244.36,220.583 244.36,206.862 244.36,129.563 277.104,206.862 282.917,220.583 
	300.161,261.291 316.629,261.291 333.872,220.583 339.684,206.862 372.43,129.563 372.43,206.862 372.43,220.583 372.43,373.807 
	399.872,373.807 399.872,81.08 "/>
<path d="M183.082,124.531V99.374c0-40.705-32.475-73.181-73.181-73.181H73.311c-40.251,0-73.183,32.476-73.183,73.181v55.116v90.789
	c0,40.249,32.932,73.64,73.183,73.64h36.591c40.706,0,73.181-33.391,73.181-73.64v-25.155H155.64v25.155
	c0,25.157-20.583,45.738-45.738,45.738H73.311c-25.156,0-45.739-20.581-45.739-45.738V154.49V99.374
	c0-25.613,20.125-45.737,45.739-45.737h36.591c25.614,0,45.738,20.124,45.738,45.737v25.157H183.082z"/>
<rect x="0.128" y="158.582" fill="#991B1F" width="399.744" height="27.442"/>
<rect x="216.917" y="146.124" width="27.443" height="87.03"/>
<rect x="372.43" y="137.23" width="27.442" height="71.148"/>
<g>
</g>
<g>
</g>
<g>
</g>
<g>
</g>
<g>
</g>
<g>
</g>
</svg>
