<?xml version="1.0" encoding="utf-8"?>
<!-- Generator: Adobe Illustrator 16.0.0, SVG Export Plug-In . SVG Version: 6.00 Build 0)  -->
<!DOCTYPE svg PUBLIC "-//W3C//DTD SVG 1.1//EN" "http://www.w3.org/Graphics/SVG/1.1/DTD/svg11.dtd">
<svg version="1.1" id="Layer_1" xmlns="http://www.w3.org/2000/svg" xmlns:xlink="http://www.w3.org/1999/xlink" x="0px" y="0px"
	 width="220.229px" height="248.674px" viewBox="0 0 220.229 248.674" enable-background="new 0 0 220.229 248.674"
	 xml:space="preserve">
<g>
	<path fill="#AAAAAA" d="M58.185,127.418c0-6.696-4.65-10.693-12.855-10.693c-3.348,0-5.615,0.323-6.805,0.646v21.503
		c1.406,0.319,3.134,0.429,5.504,0.429C52.785,139.303,58.185,134.874,58.185,127.418z"/>
	<path fill="#AAAAAA" d="M108.974,116.94c-3.678,0-6.049,0.324-7.458,0.648v47.641c1.407,0.33,3.676,0.33,5.729,0.33
		c14.906,0.104,24.629-8.103,24.629-25.497C131.984,124.932,123.123,116.94,108.974,116.94z"/>
	<path fill="#AAAAAA" d="M206.29,88.949h-5.972V60.138c0-0.18-0.028-0.361-0.052-0.543c-0.01-1.144-0.374-2.268-1.157-3.158
		l-47.945-54.77c-0.015-0.014-0.028-0.019-0.038-0.034c-0.286-0.319-0.619-0.585-0.972-0.814c-0.104-0.069-0.209-0.129-0.318-0.189
		c-0.305-0.166-0.629-0.305-0.962-0.404c-0.091-0.025-0.172-0.063-0.262-0.086C148.25,0.054,147.873,0,147.492,0H29.66
		c-5.38,0-9.752,4.375-9.752,9.752v79.195h-5.97C6.241,88.947,0,95.186,0,102.886v72.482c0,7.694,6.241,13.937,13.938,13.937h5.97
		v49.616c0,5.376,4.372,9.753,9.752,9.753h160.907c5.376,0,9.752-4.376,9.752-9.753v-49.616h5.971
		c7.695,0,13.938-6.242,13.938-13.937v-72.48C220.228,95.188,213.985,88.949,206.29,88.949z M29.66,9.754h112.957v49.895
		c0,2.693,2.185,4.875,4.875,4.875h43.074v24.429H29.66V9.754z M149.373,139.517c0,13.939-5.076,23.551-12.108,29.496
		c-7.662,6.374-19.332,9.397-33.588,9.397c-8.533,0-14.582-0.541-18.691-1.079V105.81c6.049-0.97,13.941-1.511,22.26-1.511
		c13.82,0,22.789,2.487,29.815,7.778C144.619,117.695,149.373,126.66,149.373,139.517z M22.211,177.655V105.81
		c5.075-0.859,12.209-1.511,22.256-1.511c10.154,0,17.394,1.945,22.254,5.837c4.646,3.672,7.772,9.723,7.772,16.853
		c0,7.133-2.371,13.183-6.695,17.285c-5.617,5.295-13.935,7.674-23.661,7.674c-2.157,0-4.108-0.11-5.614-0.326v26.036H22.211
		V177.655z M190.567,236.281H29.66v-46.977h160.906L190.567,236.281L190.567,236.281z M204.697,118.344H176.71v16.638h26.146v13.396
		H176.71v29.278h-16.521V104.84h44.508V118.344z"/>
</g>
</svg>
