<?xml version="1.0" encoding="utf-8"?>
<!-- Generator: Adobe Illustrator 16.0.0, SVG Export Plug-In . SVG Version: 6.00 Build 0)  -->
<!DOCTYPE svg PUBLIC "-//W3C//DTD SVG 1.1//EN" "http://www.w3.org/Graphics/SVG/1.1/DTD/svg11.dtd">
<svg version="1.1"
	 id="svg2" xmlns:rdf="http://www.w3.org/1999/02/22-rdf-syntax-ns#" xmlns:cc="http://creativecommons.org/ns#" xmlns:dc="http://purl.org/dc/elements/1.1/" xmlns:svg="http://www.w3.org/2000/svg"
	 xmlns="http://www.w3.org/2000/svg" xmlns:xlink="http://www.w3.org/1999/xlink" x="0px" y="0px" width="50px" height="67.553px"
	 viewBox="1.5 4.943 50 67.553" enable-background="new 1.5 4.943 50 67.553" xml:space="preserve">
<title  id="title3214">Magnifying Glass</title>
<path fill="#981B1E" d="M51.327,66.665L34.14,39.815c7.145-6.08,9.157-16.566,4.304-24.972C32.979,5.378,20.863,2.131,11.398,7.595
	l0.003,0C1.936,13.061-1.311,25.177,4.154,34.643c4.853,8.405,14.95,11.903,23.779,8.756c0.695,1.341,14.637,28.27,14.66,28.31
	c0.683,1.183,3.193,1.015,5.605-0.378C50.609,69.937,52.01,67.848,51.327,66.665z M8.926,31.887
	c-3.943-6.831-1.601-15.575,5.23-19.519c6.831-3.944,15.576-1.601,19.52,5.23c3.944,6.831,1.601,15.575-5.23,19.519
	C21.614,41.062,12.869,38.719,8.926,31.887z"/>
</svg>
