<?xml version="1.0" encoding="utf-8"?>
<!-- Generator: Adobe Illustrator 16.0.0, SVG Export Plug-In . SVG Version: 6.00 Build 0)  -->
<!DOCTYPE svg PUBLIC "-//W3C//DTD SVG 1.1//EN" "http://www.w3.org/Graphics/SVG/1.1/DTD/svg11.dtd">
<svg version="1.1" id="Layer_1" xmlns="http://www.w3.org/2000/svg" xmlns:xlink="http://www.w3.org/1999/xlink" x="0px" y="0px"
	 width="400px" height="400px" viewBox="0 0 400 400" enable-background="new 0 0 400 400" xml:space="preserve">
<path d="M0,191.255c12.976,0,22.849-15.233,22.849-35.825v-48.52c0-23.13,14.387-36.388,28.773-36.388h18.899v18.335H58.109
	c-9.873,0-12.976,10.437-12.976,23.131v47.955c-1.692,27.644-19.182,38.082-24.823,39.491v0.564
	c5.642,1.693,23.131,11.002,24.823,40.34v47.674c0,12.41,3.103,23.131,12.976,23.131h12.412v18.334H51.622
	c-14.387,0-28.773-13.258-28.773-36.388v-48.236c0-21.158-9.873-36.673-22.849-36.673V191.255z"/>
<path fill="#981D20" d="M136.248,274.189h-29.337v-29.902h29.337V274.189z"/>
<path fill="#981D20" d="M214.669,274.189h-29.337v-29.902h29.337V274.189z"/>
<path fill="#981D20" d="M293.089,274.189h-29.337v-29.902h29.337V274.189z"/>
<path d="M400,208.181c-12.975,0-22.849,15.515-22.849,36.673v48.236c0,23.13-14.387,36.388-28.773,36.388h-18.9v-18.334h12.413
	c9.872,0,12.975-10.721,12.975-23.131v-47.674c1.693-29.338,19.184-38.646,24.825-40.34v-0.564
	c-5.642-1.409-23.132-11.847-24.825-39.491v-47.955c0-12.694-3.103-23.131-12.975-23.131h-12.413V70.522h18.9
	c14.387,0,28.773,13.258,28.773,36.388v48.52c0,20.592,9.874,35.825,22.849,35.825V208.181z"/>
<g>
</g>
<g>
</g>
<g>
</g>
<g>
</g>
<g>
</g>
<g>
</g>
</svg>
